<?xml version="1.0" standalone="no"?><!DOCTYPE svg PUBLIC "-//W3C//DTD SVG 1.1//EN" "http://www.w3.org/Graphics/SVG/1.1/DTD/svg11.dtd"><svg t="1706790409831" class="icon" viewBox="0 0 1536 1024" version="1.1" xmlns="http://www.w3.org/2000/svg" p-id="8503" width="24" height="16" xmlns:xlink="http://www.w3.org/1999/xlink"><path d="M0 0h1536.090316v1024H0z" fill="#F40002" p-id="8504"></path><path d="M254.690422 104.40501l34.139354 106.93385 112.172164-0.722526-91.038278 65.569237 35.223143 106.572587-90.496383-66.472393-90.496384 66.472393 35.223143-106.572587L108.378903 210.616334l112.172164 0.722526zM477.228435 66.111131l33.958723 14.992415 24.204622-27.997884-3.61263 36.848827 34.139354 14.450521-36.126301 7.947786-3.251367 37.029458L507.75516 117.410478l-36.126301 8.309049 24.565884-27.817251zM591.568178 160.400776l24.565884 27.817252 33.778092-15.173047-18.785677 31.971777 24.927148 27.455989-36.306932-7.947787-18.424414 32.152408-3.61263-36.848827-36.126301-7.767155 33.958723-14.811783zM612.702064 308.699241l10.83789 35.584407 37.21009 0.180631-30.346093 21.314518 11.199154 35.223143-29.623567-22.217675-30.165461 21.675781 12.10231-35.042512-29.984829-22.037044 37.21009 0.541895zM471.990122 429.180455l35.223143 11.379785 21.314518-30.346093 0.180631 37.21009 35.403775 11.018522-35.223143 11.379785 0.361263 37.21009-21.856412-29.98483-35.042512 11.741048 21.67578-29.98483z" fill="#FCEE21" p-id="8505"></path></svg>